<svg id="Capa_1" data-name="Capa 1" xmlns="http://www.w3.org/2000/svg" viewBox="0 0 39.65 39.65"><defs><style>.cls-1{fill:#fff;}</style></defs><title>appetizers</title><path class="cls-1" d="M10.41,13.22A23.7,23.7,0,0,1,11.85,8c.06-.16.17-.2.31-.1A20.53,20.53,0,0,1,16,11a.12.12,0,0,0,.17,0l0,0a21.29,21.29,0,0,1,2.75-4.55.14.14,0,0,1,.2,0h0a22.45,22.45,0,0,1,3.11,4.88.08.08,0,0,0,.11,0l0,0a19.77,19.77,0,0,1,4.07-3.4.18.18,0,0,1,.25,0s0,0,0,0a26.86,26.86,0,0,1,1.36,5.38.1.1,0,0,0,.12.08h0a18.26,18.26,0,0,1,5.37-2,.09.09,0,0,1,.12.08h0a39,39,0,0,1-.11,6.57s0,.07.07.08h0a10,10,0,0,1,2.44,0,15.42,15.42,0,0,1,2.48.3.19.19,0,0,1,.16.25,24,24,0,0,1-3.63,8.86,12.83,12.83,0,0,1-9.33,5.75,17.51,17.51,0,0,1-4.46,0l-1.17-.13a4.21,4.21,0,0,0-1.16,0C14,34.21,8.92,33,5.5,29.16A24.07,24.07,0,0,1,.81,19.58a4.26,4.26,0,0,1-.16-.91.11.11,0,0,1,.11-.14,20.92,20.92,0,0,1,4.32-.39c.08,0,.11,0,.1-.11a27.93,27.93,0,0,1-.11-6.46.09.09,0,0,1,.11-.09h0a17,17,0,0,1,5.06,1.82C10.34,13.35,10.4,13.32,10.41,13.22ZM18.94,8C15.32,13.32,13.83,19.56,16,25.6a22.5,22.5,0,0,0,3.31,6.09.09.09,0,0,0,.13,0,0,0,0,0,0,0,0c2.69-3.8,4.64-9.13,3.86-13.85A22.33,22.33,0,0,0,19.13,8C19.07,7.88,19,7.88,18.94,8Zm-3.39,4.34a.4.4,0,0,0-.09-.5,21.07,21.07,0,0,0-3-2.55s-.08,0-.1,0v0a16.89,16.89,0,0,0-1.05,4.45.19.19,0,0,0,.1.2,19.15,19.15,0,0,1,2.83,2.25q.09.09.12,0A19.68,19.68,0,0,1,15.55,12.32ZM23,13a15.91,15.91,0,0,1,1.08,3.52c0,.11.07.12.15,0a14.81,14.81,0,0,1,2.89-2.41.17.17,0,0,0,.09-.18,21,21,0,0,0-1-4.55A.13.13,0,0,0,26,9.33l0,0a21,21,0,0,0-2.52,2.21C22.89,12.13,22.58,12.21,23,13Zm-8.89,4.43A16.87,16.87,0,0,0,6,12.63q-.11,0-.12.09c-.25,4.08.47,9.15,2.74,12.65a16.11,16.11,0,0,0,9.52,6.55c.09,0,.11,0,.06-.08a20.55,20.55,0,0,1-4.08-14.23A.23.23,0,0,0,14.09,17.42ZM31.33,23a24.45,24.45,0,0,0,1.56-10.11c0-.25-.12-.34-.36-.26a16.83,16.83,0,0,0-8.19,5.16.25.25,0,0,0-.06.2,20.54,20.54,0,0,1-3.76,13.8q-.07.12.06.09a10.39,10.39,0,0,0,1.54-.4A15.19,15.19,0,0,0,31.33,23Zm2-3.78a16,16,0,0,1-11,13.13c-.25.09-.24.15,0,.17a14.58,14.58,0,0,0,6.1-.78c5.2-1.81,7.83-7.38,9.25-12.34,0-.11,0-.17-.12-.17-.61,0-1.24-.21-1.79-.24a12.74,12.74,0,0,0-2.31.06A.21.21,0,0,0,33.36,19.26ZM16.62,32.43c-6.26-2.24-10.13-6.54-11.23-13.2a.25.25,0,0,0-.3-.23l-3.24.24a.1.1,0,0,0-.1.11v0c.94,3.81,2.86,8,5.86,10.52a13.25,13.25,0,0,0,9,2.77C17,32.64,17,32.56,16.62,32.43Z"/></svg>