<svg id="Capa_1" data-name="Capa 1" xmlns="http://www.w3.org/2000/svg" viewBox="0 0 39.65 39.65"><defs><style>.cls-1{fill:#fff;}</style></defs><title>beverages</title><path class="cls-1" d="M27.53,26.71A7.57,7.57,0,0,1,25.92,34a.11.11,0,0,0,0,.13,1.38,1.38,0,0,1-.52,1.72,2.14,2.14,0,0,1-.95.14h-9c-1.11,0-1.47-.87-1.2-1.87a.17.17,0,0,0,0-.15,7.61,7.61,0,0,1-1.9-5.81.46.46,0,0,0-.09-.32A7.67,7.67,0,0,1,10.92,22a15.44,15.44,0,0,1,2.23-5,6.44,6.44,0,0,0,1-3.2c0-1.06-.55-1.58-1.52-1.56-.3,0-.75.29-1,.14-.66-.34-.38-1.21,0-1.65a3,3,0,0,1,4.22-.46c2.28,1.87,1.1,6.08-.11,8.11-1,1.69-2.37,3.72-2.08,5.76,0,.12.06.13.13,0Q15.87,21,18,18a1.27,1.27,0,0,0,.19-.65q0-3.71,0-7.41a2,2,0,0,0-.05-.42.25.25,0,0,0-.08-.14c-.51-.47-.4-1.11-.41-1.76a1,1,0,0,1,.63-1,.13.13,0,0,0,.1-.13c0-.61,0-1.21,0-1.82a.77.77,0,0,1,.83-.83c.78,0,2.38-.37,2.38.87,0,.59,0,1.17,0,1.76a.09.09,0,0,0,.08.1.93.93,0,0,1,.72,1,3.23,3.23,0,0,1-.21,1.66c-.05.09,0,.12.07.08,3.37-1.38,6.18.67,7.17,3.88a11.23,11.23,0,0,1,.3,5.69c-.38,1.9-1.66,3.94-.46,5.89.32.51.85.44,1.37.43a1.34,1.34,0,0,1,.19,2.64,3.55,3.55,0,0,1-3.33-1.1Q27.49,26.59,27.53,26.71ZM21,4.56a.11.11,0,0,0-.11-.11H19.27a.11.11,0,0,0-.11.11h0V6.45a.11.11,0,0,0,.11.11h1.61A.11.11,0,0,0,21,6.45h0Zm.84,2.87a.18.18,0,0,0-.19-.18H18.57a.19.19,0,0,0-.19.18v1.2a.2.2,0,0,0,.19.19h3.07a.19.19,0,0,0,.19-.19h0ZM13.24,27.2a1,1,0,0,1,.95-.18c.27.08.35.27.22.55a.17.17,0,0,1-.13.1,2.54,2.54,0,0,1-.87,0,.1.1,0,0,1-.08,0l-.14-.19s0,0,0,0l-.16.87c0,.07,0,.1.08.1H27c.08,0,.12,0,.1-.12a13,13,0,0,0-2.73-5.71q-1.53-2.16-3-4.35a1,1,0,0,1-.2-.76c0-2.62,0-5.23,0-7.86a.09.09,0,0,0-.1-.1H19c-.05,0-.08,0-.08.09v8.08a.8.8,0,0,1-.13.42c-1.57,2.31-3.31,4.57-4.7,7a14,14,0,0,0-.87,2,.4.4,0,0,0,0,.16h0S13.23,27.2,13.24,27.2Zm16.15-1.55C27.92,24.86,28,22,28.5,20.78a11.43,11.43,0,0,0,.82-4.94,8.34,8.34,0,0,0-1.41-4.43A4.15,4.15,0,0,0,22.41,10a1.48,1.48,0,0,0-.39.25.29.29,0,0,0-.12.24v1.37c0,.09,0,.1.09.05a3.44,3.44,0,0,1,2.9-1.07c2.59.46,3.21,3.94,3.13,6.05a11.72,11.72,0,0,1-.71,3.52,6.56,6.56,0,0,0-.24,3.94,3.34,3.34,0,0,0,3.53,2.79c.95-.11.95-1.27,0-1.3A2.56,2.56,0,0,1,29.39,25.65Zm-14.9-9.88a28,28,0,0,1-1.7,3.2,7.9,7.9,0,0,0-.35,8,0,0,0,0,0,.05,0s0,0,0,0l.67-1.7a.25.25,0,0,0,0-.17c-.93-3.44,1.35-5.59,2.56-8.38A7.34,7.34,0,0,0,16.28,12C15.64,10,13,9.44,12,11.48a.06.06,0,0,0,0,.09h0a2.74,2.74,0,0,1,2,.27C15.21,12.7,15,14.64,14.49,15.77Zm12.14,4.52A11.57,11.57,0,0,0,27.36,16c-.05-1.35-.74-4-2.27-4.39-1.32-.36-2.25.36-3.09,1.26a.39.39,0,0,0-.11.28v4a1.66,1.66,0,0,0,.37,1.13q2,2.85,4,5.77c.05.07.07.07.06,0A8,8,0,0,1,26.63,20.29ZM27,30.16a.07.07,0,0,0,.07-.07l.1-.93a.1.1,0,0,0-.07-.09h-14a.09.09,0,0,0-.08.08h0l.09.93a.08.08,0,0,0,.08.07Zm-1.53,3.3a.23.23,0,0,0,.21-.13l1.16-2.1a.23.23,0,0,0-.09-.33.27.27,0,0,0-.12,0H13.5a.25.25,0,0,0-.25.24.27.27,0,0,0,0,.12l1.16,2.1a.25.25,0,0,0,.22.13Zm-.18,1.1a.43.43,0,0,0-.43-.43H15.27a.44.44,0,0,0-.44.43v.3a.44.44,0,0,0,.44.43h9.59a.43.43,0,0,0,.43-.43Z"/><rect class="cls-1" x="14.88" y="27.01" width="1.69" height="0.68" rx="0.26"/><rect class="cls-1" x="17.52" y="26.49" width="0.67" height="1.73" rx="0.26" transform="translate(-9.59 45.07) rotate(-89.7)"/><rect class="cls-1" x="19.18" y="27.03" width="1.66" height="0.66" rx="0.2"/><rect class="cls-1" x="21.79" y="26.51" width="0.67" height="1.7" rx="0.24" transform="translate(-5.26 49.44) rotate(-89.9)"/><rect class="cls-1" x="23.93" y="26.51" width="0.67" height="1.69" rx="0.25" transform="translate(-3.13 51.58) rotate(-89.9)"/><rect class="cls-1" x="25.81" y="26.74" width="0.69" height="1.22" rx="0.32" transform="translate(-1.61 53.07) rotate(-89.1)"/></svg>