<svg id="Capa_1" data-name="Capa 1" xmlns="http://www.w3.org/2000/svg" viewBox="0 0 39.65 39.65"><defs><style>.cls-1{fill:#fff;}</style></defs><title>desserts</title><path class="cls-1" d="M20.18,13.81a5.36,5.36,0,0,1,1.49-3.09,6,6,0,0,1,9.83,6.36c0,.06,0,.1.05.11a5.93,5.93,0,0,1,4,6.49s0,.07.06.08h.71c.36,0,.56.23.4.57C33,32,23.26,34.73,15.49,33.2c-5.17-1-10.27-4-12.54-8.92-.09-.21-.07-.36.07-.46a.8.8,0,0,1,.37-.07h2a.08.08,0,0,0,.07-.08v0a5.92,5.92,0,0,1,2.85-8,.15.15,0,0,0,.1-.15A5.9,5.9,0,0,1,16.58,10a5.77,5.77,0,0,1,3.29,3.36q.11.25.24.51C20.15,13.89,20.17,13.88,20.18,13.81Zm9-3.18a5.26,5.26,0,0,0-8.41,4.72.15.15,0,0,0,.18.15l.47,0a.26.26,0,0,0,.15-.07,2,2,0,0,1,.78-.59,1.55,1.55,0,0,1,2,1.34.17.17,0,0,0,.08.13,10.17,10.17,0,0,1,1.75,1.57.09.09,0,0,0,.11,0,.73.73,0,0,0,.54-.46,1.61,1.61,0,0,1,1.29-1.21c.75-.13,1,.19,1.54.64a.21.21,0,0,0,.11,0l.85.07a.14.14,0,0,0,.14-.09A5.32,5.32,0,0,0,29.22,10.63ZM17.51,17a6,6,0,0,1,2-1.2.11.11,0,0,0,.07-.1c0-6.88-9.83-7.27-10.45-.43a.1.1,0,0,0,.08.11h0a6.07,6.07,0,0,1,6.27,2,.13.13,0,0,0,.18,0h0c.49-.55,1-.4,1.66-.34A.25.25,0,0,0,17.51,17Zm5.94-1.23c0-.05-.15-.15-.37-.21s-.41-.07-.43,0h0s.15.15.37.21.42.08.43,0ZM6.29,21.92a1.55,1.55,0,1,1,2.52,1.74c-.05.06,0,.09,0,.09h2.73a.09.09,0,0,0,.1-.08,1.57,1.57,0,0,1,3-.17c.13.36.34.41.62.16l.12-.11a.82.82,0,0,0,.24-.77,5.91,5.91,0,0,1,.13-3.23.38.38,0,0,0,0-.15,5.22,5.22,0,1,0-9.42,4.34.1.1,0,0,0,.11.05h.07s.06,0,0-.08A1.65,1.65,0,0,1,6.29,21.92Zm16.05,1.82A1.62,1.62,0,0,1,25,23.37c.07.08.12.22.2.32a.17.17,0,0,0,.14.07H26a.13.13,0,0,0,.13-.09,5.24,5.24,0,1,0-9.4,0,.07.07,0,0,0,.11,0l0,0a0,0,0,0,0,0-.06,1.44,1.44,0,0,1,.15-1.73,1.55,1.55,0,0,1,2.69,1.35c0,.11-.11.25-.14.38a.08.08,0,0,0,.06.1h0l2.26,0ZM28.5,17s-.15-.06-.31,0h0c-.17,0-.3.07-.29.11s.14.06.3,0h0C28.37,17.09,28.5,17,28.5,17ZM16.14,18.36a.08.08,0,0,0,.09.06.09.09,0,0,0,.05,0l.46-.68a.09.09,0,0,0,0-.11h-.07l-.1,0a.62.62,0,0,0-.4.73Zm18.7,5.28a5.23,5.23,0,0,0-8.11-5.11.09.09,0,0,0,0,.12,6.3,6.3,0,0,1,.65,3.28c0,.17.28.57.33.81a2.21,2.21,0,0,1-.05.92c0,.06,0,.09.07.09h7A.13.13,0,0,0,34.84,23.64ZM8.52,22.57a.82.82,0,0,0-.82-.82h0a.83.83,0,0,0-.83.82h0a.83.83,0,1,0,1.65,0Zm10.6.35a.83.83,0,1,0-.83.83h0a.83.83,0,0,0,.83-.83Zm-5.65.31a1.19,1.19,0,0,0-.86.23l-.09.06a.13.13,0,0,0,0,.18.12.12,0,0,0,.1.05h1.22a.12.12,0,0,0,.12-.13.15.15,0,0,0,0-.09l-.29-.23a.35.35,0,0,0-.14-.06Zm9.88.54h.86a0,0,0,0,0,0,0h0v0c0-.1-.19-.18-.43-.18h-.06c-.24,0-.43.08-.43.18h0v0a0,0,0,0,0,0,0ZM4.7,25.88a18.06,18.06,0,0,0,13.38,6.94c6.4.49,13.56-1.78,17.19-7.43a5.45,5.45,0,0,0,.44-.83c0-.06,0-.09-.07-.09H4.05c-.08,0-.1,0-.07.1A5.27,5.27,0,0,0,4.7,25.88Z"/><path class="cls-1" d="M26.59,11.37A1.55,1.55,0,1,1,25,9.81h0a1.55,1.55,0,0,1,1.55,1.56Zm-.73,0a.82.82,0,0,0-1.64,0h0a.82.82,0,0,0,.82.82h0A.82.82,0,0,0,25.86,11.36Z"/><path class="cls-1" d="M14.92,12.06a1.55,1.55,0,1,1-1.55-1.54A1.55,1.55,0,0,1,14.92,12.06Zm-.71,0a.83.83,0,1,0-.83.83h0a.83.83,0,0,0,.83-.83Z"/><path class="cls-1" d="M29.9,12.54a1.54,1.54,0,0,1-1.55,1.55h0a1.54,1.54,0,0,1-1.54-1.55h0a1.55,1.55,0,0,1,3.09,0Zm-.68,0a.83.83,0,0,0-.83-.83.84.84,0,0,0-.84.83h0a.85.85,0,0,0,.84.84h0a.84.84,0,0,0,.83-.84Z"/><path class="cls-1" d="M18.24,13.24a1.55,1.55,0,1,1-1.55-1.54A1.54,1.54,0,0,1,18.24,13.24Zm-.71,0a.82.82,0,1,0-.82.82A.82.82,0,0,0,17.53,13.25Z"/><path class="cls-1" d="M11.41,17.64a1.54,1.54,0,1,1-1.54-1.53h0a1.53,1.53,0,0,1,1.54,1.53Zm-.74,0a.82.82,0,1,0-.82.81h0a.82.82,0,0,0,.82-.81Z"/><path class="cls-1" d="M22,18a1.55,1.55,0,0,1-1.55,1.54h0A1.54,1.54,0,0,1,18.9,18h0a1.54,1.54,0,0,1,1.54-1.54h0A1.55,1.55,0,0,1,22,18Zm-.73,0a.82.82,0,1,0-.82.82h0a.82.82,0,0,0,.82-.82Z"/><path class="cls-1" d="M14.73,18.83a1.56,1.56,0,1,1-1.55-1.55A1.56,1.56,0,0,1,14.73,18.83Zm-.73,0a.82.82,0,1,0-.82.82A.82.82,0,0,0,14,18.83Z"/><path class="cls-1" d="M25.3,19.17a1.55,1.55,0,0,1-3.09,0h0a1.54,1.54,0,0,1,1.55-1.54h0A1.54,1.54,0,0,1,25.3,19.17Zm-.71,0a.84.84,0,1,0-.84.83h0a.84.84,0,0,0,.84-.83Z"/><path class="cls-1" d="M31.57,19.3A1.55,1.55,0,1,1,30,17.76h0a1.54,1.54,0,0,1,1.55,1.54Zm-.71,0a.83.83,0,1,0-.82.82A.83.83,0,0,0,30.86,19.31Z"/><path class="cls-1" d="M34.2,21.65a1.55,1.55,0,1,1-1.55-1.55A1.55,1.55,0,0,1,34.2,21.65Zm-.72,0a.82.82,0,1,0-.82.82h0a.81.81,0,0,0,.82-.82Z"/></svg>