<svg id="Capa_1" data-name="Capa 1" xmlns="http://www.w3.org/2000/svg" viewBox="0 0 39.65 39.65"><defs><style>.cls-1{fill:#fff;}</style></defs><title>maindishes</title><path class="cls-1" d="M13.25,30.57a20.61,20.61,0,0,1-8-6.13c-1.89-2.37-4-6.38-2.7-9.47a10.67,10.67,0,0,1,1.23-1.86,5.66,5.66,0,0,1,2.84-1.88,33.52,33.52,0,0,1,7.28-1.5,52,52,0,0,1,17.85,1.08A7.31,7.31,0,0,1,36,13.25a7.93,7.93,0,0,1,1.18,1.87c.88,2.45-.18,5.41-1.52,7.51C30.93,30.1,21.77,34.25,13.25,30.57ZM35.35,14c0-2.07-7-3.75-15.52-3.75S4.32,11.92,4.32,14s6.94,3.75,15.51,3.75S35.35,16.06,35.35,14ZM18.62,31.15c7.27.57,14.82-4.5,17.54-11.17a6,6,0,0,0,0-5.21.11.11,0,0,0-.15,0l0,0c-1.19,1.69-4,2.44-6.1,2.83a56.17,56.17,0,0,1-20,0c-2-.35-5.06-1.13-6.29-2.91a.07.07,0,0,0-.09,0l0,0C2.38,16.79,3,19,4,21A18.88,18.88,0,0,0,18.62,31.15Z"/><path class="cls-1" d="M33.15,14.76a4.41,4.41,0,0,1-2,1.15c-5.68,1.62-12.12,1.62-17.94.93A31.38,31.38,0,0,1,8.86,16a4.57,4.57,0,0,1-2.4-1.32c-1.68-2.24,4.55-3.31,5.67-3.45A61.31,61.31,0,0,1,25.67,11a17.78,17.78,0,0,1,7.1,1.83A1.22,1.22,0,0,1,33.15,14.76Zm-4.47-1.88c.69.54.33,1.41-.45,1.63a6.9,6.9,0,0,1-1.79.25.09.09,0,0,0-.09.09s0,0,0,.05c.31.48.12.68-.1,1.13q0,.09.06.09a15.83,15.83,0,0,0,5.94-1.58,1.05,1.05,0,0,0,.43-.4.36.36,0,0,0-.1-.47,4.38,4.38,0,0,0-1.46-.77,33.83,33.83,0,0,0-7.93-1.34,52.93,52.93,0,0,0-11.8.59c-1.3.24-3.38.62-4.36,1.55a.41.41,0,0,0,0,.57l.06.05c1.74,1.22,4.51,1.65,6.58,1.85a65.06,65.06,0,0,0,8.1.27c.33,0,.34-.05,0-.11-1.18-.25-1.3-1.64-.05-1.94a9.88,9.88,0,0,1,1.69-.26.09.09,0,0,0,.08-.09.06.06,0,0,1,0,0C22.37,11.92,27.86,12.24,28.68,12.88Zm-.42.69c0-.25-.92-.46-2.06-.46h0c-1.14,0-2.06.21-2.06.46h0c0,.25.92.46,2.06.46h0c1.14,0,2.06-.21,2.06-.46Zm-2.51,1.77c0-.25-.92-.45-2.05-.45s-2,.2-2,.45.91.46,2,.46S25.75,15.59,25.75,15.34Z"/><path class="cls-1" d="M16.23,14.19l-.05.61a.21.21,0,0,1-.07.15,2.39,2.39,0,0,1-1.26.58c-.93.15-4.24.39-4.29-1.08s3.83-1.23,4.82-1a.1.1,0,0,0,.11-.06v0a.93.93,0,0,1,.37-1,7.24,7.24,0,0,1,4.71,0,1,1,0,0,1-.25,1.78,7.28,7.28,0,0,1-4,0,.1.1,0,0,0-.12.07Zm4.1-1.06c0-.25-.92-.44-2.06-.44h0c-1.14,0-2.07.19-2.07.44h0c0,.24.93.44,2.07.44S20.33,13.37,20.33,13.13Zm-4.87,1.31c0-.24-.92-.43-2.05-.44s-2.05.19-2.05.43h0c0,.24.91.43,2.05.44s2.05-.19,2.05-.43Z"/></svg>